<mxfile host="app.diagrams.net" agent="Mozilla/5.0 (Windows NT 10.0; Win64; x64) AppleWebKit/537.36 (KHTML, like Gecko) Chrome/131.0.0.0 Safari/537.36" version="24.9.1">
  <diagram name="第 1 页" id="Va7lesuhmlkd4zRvfCV4">
    <mxGraphModel dx="1230" dy="439" grid="0" gridSize="10" guides="1" tooltips="1" connect="1" arrows="1" fold="1" page="0" pageScale="1" pageWidth="827" pageHeight="1169" math="0" shadow="0">
      <root>
        <mxCell id="0" />
        <mxCell id="1" parent="0" />
        <mxCell id="n4h6cx65gVVSt2BHoM08-6" value="" style="edgeStyle=orthogonalEdgeStyle;rounded=0;orthogonalLoop=1;jettySize=auto;html=1;" parent="1" source="n4h6cx65gVVSt2BHoM08-3" target="n4h6cx65gVVSt2BHoM08-5" edge="1">
          <mxGeometry relative="1" as="geometry" />
        </mxCell>
        <mxCell id="n4h6cx65gVVSt2BHoM08-3" value="&lt;div&gt;&lt;span style=&quot;background-color: initial;&quot;&gt;开始&lt;/span&gt;&lt;/div&gt;" style="strokeWidth=2;html=1;shape=mxgraph.flowchart.start_2;whiteSpace=wrap;" parent="1" vertex="1">
          <mxGeometry x="184" y="147" width="95" height="95" as="geometry" />
        </mxCell>
        <mxCell id="n4h6cx65gVVSt2BHoM08-8" style="edgeStyle=orthogonalEdgeStyle;rounded=0;orthogonalLoop=1;jettySize=auto;html=1;exitX=1;exitY=0.5;exitDx=0;exitDy=0;exitPerimeter=0;entryX=1;entryY=0.5;entryDx=0;entryDy=0;" parent="1" source="n4h6cx65gVVSt2BHoM08-4" target="n4h6cx65gVVSt2BHoM08-5" edge="1">
          <mxGeometry relative="1" as="geometry" />
        </mxCell>
        <mxCell id="n4h6cx65gVVSt2BHoM08-9" value="N" style="edgeLabel;html=1;align=center;verticalAlign=middle;resizable=0;points=[];" parent="n4h6cx65gVVSt2BHoM08-8" vertex="1" connectable="0">
          <mxGeometry x="-0.1646" y="-2" relative="1" as="geometry">
            <mxPoint x="-3" y="-3" as="offset" />
          </mxGeometry>
        </mxCell>
        <mxCell id="n4h6cx65gVVSt2BHoM08-4" value="是否受到破坏伤害" style="strokeWidth=2;html=1;shape=mxgraph.flowchart.decision;whiteSpace=wrap;" parent="1" vertex="1">
          <mxGeometry x="158" y="396" width="147" height="100" as="geometry" />
        </mxCell>
        <mxCell id="n4h6cx65gVVSt2BHoM08-5" value="ISM" style="rounded=1;whiteSpace=wrap;html=1;" parent="1" vertex="1">
          <mxGeometry x="171.5" y="285" width="120" height="60" as="geometry" />
        </mxCell>
        <mxCell id="n4h6cx65gVVSt2BHoM08-7" style="edgeStyle=orthogonalEdgeStyle;rounded=0;orthogonalLoop=1;jettySize=auto;html=1;exitX=0.5;exitY=1;exitDx=0;exitDy=0;entryX=0.5;entryY=0;entryDx=0;entryDy=0;entryPerimeter=0;" parent="1" source="n4h6cx65gVVSt2BHoM08-5" target="n4h6cx65gVVSt2BHoM08-4" edge="1">
          <mxGeometry relative="1" as="geometry" />
        </mxCell>
        <mxCell id="n4h6cx65gVVSt2BHoM08-10" value="&lt;div&gt;破坏伤害来源要统一接口&lt;/div&gt;&lt;div&gt;武器(子弹/投掷物等)，天灾(雷击等)，车辆撞击/爆炸&lt;/div&gt;&lt;div&gt;例：车辆爆炸和手雷都用爆炸？&lt;/div&gt;车辆破坏较为特殊&lt;div&gt;不同的物件需要支持配置不同的【可破坏时速】&lt;/div&gt;&lt;div&gt;当 撞击时车速&amp;gt;&lt;span style=&quot;background-color: initial;&quot;&gt;【可破坏&lt;/span&gt;时速&lt;span style=&quot;background-color: initial;&quot;&gt;】&lt;/span&gt;时&lt;/div&gt;&lt;div&gt;才会造成破坏，否则正常阻挡&lt;/div&gt;" style="shape=document;whiteSpace=wrap;html=1;boundedLbl=1;" parent="1" vertex="1">
          <mxGeometry x="-153" y="370.5" width="283" height="151" as="geometry" />
        </mxCell>
        <mxCell id="n4h6cx65gVVSt2BHoM08-11" value="&lt;div style=&quot;forced-color-adjust: none; color: rgb(0, 0, 0); font-family: Helvetica; font-size: 12px; font-style: normal; font-variant-ligatures: normal; font-variant-caps: normal; font-weight: 400; letter-spacing: normal; orphans: 2; text-align: center; text-indent: 0px; text-transform: none; widows: 2; word-spacing: 0px; -webkit-text-stroke-width: 0px; white-space: normal; background-color: rgb(255, 255, 255); text-decoration-thickness: initial; text-decoration-style: initial; text-decoration-color: initial;&quot;&gt;&lt;br&gt;&lt;/div&gt;" style="text;whiteSpace=wrap;html=1;" parent="1" vertex="1">
          <mxGeometry x="426.99662597656254" y="181" width="124" height="51" as="geometry" />
        </mxCell>
        <mxCell id="n4h6cx65gVVSt2BHoM08-12" value="&lt;br&gt;&lt;div style=&quot;forced-color-adjust: none; color: rgb(0, 0, 0); font-family: Helvetica; font-size: 12px; font-style: normal; font-variant-ligatures: normal; font-variant-caps: normal; font-weight: 400; letter-spacing: normal; orphans: 2; text-indent: 0px; text-transform: none; widows: 2; word-spacing: 0px; -webkit-text-stroke-width: 0px; white-space: normal; text-decoration-thickness: initial; text-decoration-style: initial; text-decoration-color: initial; text-align: center; background-color: rgb(255, 255, 255);&quot;&gt;已经放置在场景中&lt;/div&gt;&lt;div style=&quot;forced-color-adjust: none; color: rgb(0, 0, 0); font-family: Helvetica; font-size: 12px; font-style: normal; font-variant-ligatures: normal; font-variant-caps: normal; font-weight: 400; letter-spacing: normal; orphans: 2; text-indent: 0px; text-transform: none; widows: 2; word-spacing: 0px; -webkit-text-stroke-width: 0px; white-space: normal; text-decoration-thickness: initial; text-decoration-style: initial; text-decoration-color: initial; text-align: center; background-color: rgb(255, 255, 255);&quot;&gt;的可破坏物件&lt;/div&gt;" style="shape=document;whiteSpace=wrap;html=1;boundedLbl=1;" parent="1" vertex="1">
          <mxGeometry x="-26" y="159" width="164" height="73" as="geometry" />
        </mxCell>
        <mxCell id="n4h6cx65gVVSt2BHoM08-18" style="edgeStyle=orthogonalEdgeStyle;rounded=0;orthogonalLoop=1;jettySize=auto;html=1;exitX=0.5;exitY=1;exitDx=0;exitDy=0;exitPerimeter=0;entryX=0.5;entryY=0;entryDx=0;entryDy=0;" parent="1" source="n4h6cx65gVVSt2BHoM08-13" edge="1">
          <mxGeometry relative="1" as="geometry">
            <mxPoint x="231.49999999999977" y="840" as="targetPoint" />
          </mxGeometry>
        </mxCell>
        <mxCell id="n4h6cx65gVVSt2BHoM08-19" value="进入破坏流程" style="edgeLabel;html=1;align=center;verticalAlign=middle;resizable=0;points=[];" parent="n4h6cx65gVVSt2BHoM08-18" vertex="1" connectable="0">
          <mxGeometry x="-0.1558" y="-1" relative="1" as="geometry">
            <mxPoint x="1" y="15" as="offset" />
          </mxGeometry>
        </mxCell>
        <mxCell id="n4h6cx65gVVSt2BHoM08-23" value="Y" style="edgeLabel;html=1;align=center;verticalAlign=middle;resizable=0;points=[];" parent="n4h6cx65gVVSt2BHoM08-18" vertex="1" connectable="0">
          <mxGeometry x="-0.5208" y="-1" relative="1" as="geometry">
            <mxPoint as="offset" />
          </mxGeometry>
        </mxCell>
        <mxCell id="n4h6cx65gVVSt2BHoM08-20" style="edgeStyle=orthogonalEdgeStyle;rounded=0;orthogonalLoop=1;jettySize=auto;html=1;exitX=1;exitY=0.5;exitDx=0;exitDy=0;exitPerimeter=0;entryX=0;entryY=0.5;entryDx=0;entryDy=0;entryPerimeter=0;" parent="1" source="n4h6cx65gVVSt2BHoM08-13" target="n4h6cx65gVVSt2BHoM08-28" edge="1">
          <mxGeometry relative="1" as="geometry">
            <Array as="points">
              <mxPoint x="375" y="726" />
              <mxPoint x="375" y="726" />
            </Array>
          </mxGeometry>
        </mxCell>
        <mxCell id="n4h6cx65gVVSt2BHoM08-21" value="N" style="edgeLabel;html=1;align=center;verticalAlign=middle;resizable=0;points=[];" parent="n4h6cx65gVVSt2BHoM08-20" vertex="1" connectable="0">
          <mxGeometry x="-0.2053" y="-1" relative="1" as="geometry">
            <mxPoint as="offset" />
          </mxGeometry>
        </mxCell>
        <mxCell id="n4h6cx65gVVSt2BHoM08-13" value="剩余血量/受击次数&lt;div&gt;是否&amp;lt;=0&lt;/div&gt;" style="strokeWidth=2;html=1;shape=mxgraph.flowchart.decision;whiteSpace=wrap;" parent="1" vertex="1">
          <mxGeometry x="158" y="676" width="147" height="100" as="geometry" />
        </mxCell>
        <mxCell id="n4h6cx65gVVSt2BHoM08-14" style="edgeStyle=orthogonalEdgeStyle;rounded=0;orthogonalLoop=1;jettySize=auto;html=1;exitX=0.5;exitY=1;exitDx=0;exitDy=0;exitPerimeter=0;entryX=0.5;entryY=0;entryDx=0;entryDy=0;entryPerimeter=0;" parent="1" source="n4h6cx65gVVSt2BHoM08-24" target="n4h6cx65gVVSt2BHoM08-13" edge="1">
          <mxGeometry relative="1" as="geometry" />
        </mxCell>
        <mxCell id="uieIQEx0IR_x6s4_1cCk-11" style="edgeStyle=orthogonalEdgeStyle;rounded=0;orthogonalLoop=1;jettySize=auto;html=1;exitX=1;exitY=0.5;exitDx=0;exitDy=0;exitPerimeter=0;" edge="1" parent="1" source="n4h6cx65gVVSt2BHoM08-16" target="uieIQEx0IR_x6s4_1cCk-10">
          <mxGeometry relative="1" as="geometry" />
        </mxCell>
        <mxCell id="uieIQEx0IR_x6s4_1cCk-12" value="Y" style="edgeLabel;html=1;align=center;verticalAlign=middle;resizable=0;points=[];" vertex="1" connectable="0" parent="uieIQEx0IR_x6s4_1cCk-11">
          <mxGeometry x="-0.221" y="1" relative="1" as="geometry">
            <mxPoint as="offset" />
          </mxGeometry>
        </mxCell>
        <mxCell id="uieIQEx0IR_x6s4_1cCk-15" style="edgeStyle=orthogonalEdgeStyle;rounded=0;orthogonalLoop=1;jettySize=auto;html=1;exitX=0.5;exitY=1;exitDx=0;exitDy=0;exitPerimeter=0;entryX=0.5;entryY=0;entryDx=0;entryDy=0;entryPerimeter=0;" edge="1" parent="1" source="n4h6cx65gVVSt2BHoM08-16" target="uieIQEx0IR_x6s4_1cCk-18">
          <mxGeometry relative="1" as="geometry">
            <mxPoint x="231.5" y="1038" as="targetPoint" />
          </mxGeometry>
        </mxCell>
        <mxCell id="uieIQEx0IR_x6s4_1cCk-17" value="N" style="edgeLabel;html=1;align=center;verticalAlign=middle;resizable=0;points=[];" vertex="1" connectable="0" parent="uieIQEx0IR_x6s4_1cCk-15">
          <mxGeometry x="-0.1866" relative="1" as="geometry">
            <mxPoint as="offset" />
          </mxGeometry>
        </mxCell>
        <mxCell id="n4h6cx65gVVSt2BHoM08-16" value="被破坏物件&lt;div&gt;是否有子物件&lt;/div&gt;" style="strokeWidth=2;html=1;shape=mxgraph.flowchart.decision;whiteSpace=wrap;" parent="1" vertex="1">
          <mxGeometry x="158" y="840" width="147" height="100" as="geometry" />
        </mxCell>
        <mxCell id="n4h6cx65gVVSt2BHoM08-25" value="" style="edgeStyle=orthogonalEdgeStyle;rounded=0;orthogonalLoop=1;jettySize=auto;html=1;exitX=0.5;exitY=1;exitDx=0;exitDy=0;exitPerimeter=0;entryX=0.5;entryY=0;entryDx=0;entryDy=0;entryPerimeter=0;" parent="1" source="n4h6cx65gVVSt2BHoM08-4" target="n4h6cx65gVVSt2BHoM08-24" edge="1">
          <mxGeometry relative="1" as="geometry">
            <mxPoint x="232" y="496" as="sourcePoint" />
            <mxPoint x="232" y="676" as="targetPoint" />
          </mxGeometry>
        </mxCell>
        <mxCell id="n4h6cx65gVVSt2BHoM08-26" value="Y" style="edgeLabel;html=1;align=center;verticalAlign=middle;resizable=0;points=[];" parent="n4h6cx65gVVSt2BHoM08-25" vertex="1" connectable="0">
          <mxGeometry x="-0.2861" y="-3" relative="1" as="geometry">
            <mxPoint x="3" y="2" as="offset" />
          </mxGeometry>
        </mxCell>
        <mxCell id="n4h6cx65gVVSt2BHoM08-24" value="可破坏" style="rounded=1;whiteSpace=wrap;html=1;" parent="1" vertex="1">
          <mxGeometry x="171.5" y="556" width="120" height="60" as="geometry" />
        </mxCell>
        <mxCell id="n4h6cx65gVVSt2BHoM08-29" style="edgeStyle=orthogonalEdgeStyle;rounded=0;orthogonalLoop=1;jettySize=auto;html=1;exitX=1;exitY=0.5;exitDx=0;exitDy=0;exitPerimeter=0;entryX=1;entryY=0.5;entryDx=0;entryDy=0;" parent="1" source="n4h6cx65gVVSt2BHoM08-28" target="n4h6cx65gVVSt2BHoM08-5" edge="1">
          <mxGeometry relative="1" as="geometry" />
        </mxCell>
        <mxCell id="uieIQEx0IR_x6s4_1cCk-6" value="Y" style="edgeLabel;html=1;align=center;verticalAlign=middle;resizable=0;points=[];" vertex="1" connectable="0" parent="n4h6cx65gVVSt2BHoM08-29">
          <mxGeometry x="-0.6223" y="-2" relative="1" as="geometry">
            <mxPoint x="-2" y="-1" as="offset" />
          </mxGeometry>
        </mxCell>
        <mxCell id="uieIQEx0IR_x6s4_1cCk-8" style="edgeStyle=orthogonalEdgeStyle;rounded=0;orthogonalLoop=1;jettySize=auto;html=1;exitX=0.5;exitY=0;exitDx=0;exitDy=0;exitPerimeter=0;entryX=1;entryY=0.5;entryDx=0;entryDy=0;" edge="1" parent="1" source="n4h6cx65gVVSt2BHoM08-28" target="n4h6cx65gVVSt2BHoM08-24">
          <mxGeometry relative="1" as="geometry" />
        </mxCell>
        <mxCell id="uieIQEx0IR_x6s4_1cCk-9" value="N" style="edgeLabel;html=1;align=center;verticalAlign=middle;resizable=0;points=[];" vertex="1" connectable="0" parent="uieIQEx0IR_x6s4_1cCk-8">
          <mxGeometry x="0.1043" y="2" relative="1" as="geometry">
            <mxPoint x="-14" y="-2" as="offset" />
          </mxGeometry>
        </mxCell>
        <mxCell id="n4h6cx65gVVSt2BHoM08-28" value="圆形半径【检测玩家半径】米 范围内没有玩家存在&lt;div&gt;&lt;span style=&quot;background-color: initial;&quot;&gt;||&amp;nbsp;&lt;/span&gt;&lt;div&gt;连续【持续健康时间】秒 没有受到任何伤害&lt;/div&gt;&lt;/div&gt;" style="strokeWidth=2;html=1;shape=mxgraph.flowchart.decision;whiteSpace=wrap;" parent="1" vertex="1">
          <mxGeometry x="395" y="656" width="404" height="140" as="geometry" />
        </mxCell>
        <mxCell id="uieIQEx0IR_x6s4_1cCk-2" value="【可破坏时速】&lt;div&gt;单位：同载具车速&lt;/div&gt;&lt;div&gt;数据类型：int&lt;/div&gt;" style="shape=document;whiteSpace=wrap;html=1;boundedLbl=1;fillColor=#FFAA00;strokeColor=#000000;" vertex="1" parent="1">
          <mxGeometry x="-301" y="370.5" width="120" height="94" as="geometry" />
        </mxCell>
        <mxCell id="uieIQEx0IR_x6s4_1cCk-3" value="【检测玩家半径】&lt;div&gt;单位：米&lt;/div&gt;&lt;div&gt;数据类型：int&lt;/div&gt;" style="shape=document;whiteSpace=wrap;html=1;boundedLbl=1;fillColor=#FFAA00;strokeColor=#000000;" vertex="1" parent="1">
          <mxGeometry x="941" y="679" width="120" height="94" as="geometry" />
        </mxCell>
        <mxCell id="uieIQEx0IR_x6s4_1cCk-4" value="【持续健康时间】&lt;div&gt;单位：秒&lt;/div&gt;&lt;div&gt;数据类型：int&lt;/div&gt;" style="shape=document;whiteSpace=wrap;html=1;boundedLbl=1;fillColor=#FFAA00;strokeColor=#000000;" vertex="1" parent="1">
          <mxGeometry x="1094" y="679" width="120" height="94" as="geometry" />
        </mxCell>
        <mxCell id="uieIQEx0IR_x6s4_1cCk-7" value="&lt;div&gt;&lt;b style=&quot;background-color: initial;&quot;&gt;备注&lt;/b&gt;&lt;/div&gt;为了阅读顺畅&lt;div&gt;不纠结Y/N方向&lt;/div&gt;" style="text;html=1;align=center;verticalAlign=middle;whiteSpace=wrap;rounded=0;" vertex="1" parent="1">
          <mxGeometry x="166" y="43" width="131" height="56" as="geometry" />
        </mxCell>
        <mxCell id="uieIQEx0IR_x6s4_1cCk-10" value="子物件&lt;div&gt;触发破坏&lt;div&gt;血量归零&lt;/div&gt;&lt;/div&gt;" style="rounded=1;whiteSpace=wrap;html=1;" vertex="1" parent="1">
          <mxGeometry x="409" y="860" width="120" height="60" as="geometry" />
        </mxCell>
        <mxCell id="uieIQEx0IR_x6s4_1cCk-13" value="【物件血量】&lt;div&gt;数据类型：float&lt;/div&gt;" style="shape=document;whiteSpace=wrap;html=1;boundedLbl=1;fillColor=#FFAA00;strokeColor=#000000;" vertex="1" parent="1">
          <mxGeometry x="-10" y="679" width="120" height="94" as="geometry" />
        </mxCell>
        <mxCell id="uieIQEx0IR_x6s4_1cCk-14" value="【物件受击次数】&lt;div&gt;数据类型：int&lt;/div&gt;" style="shape=document;whiteSpace=wrap;html=1;boundedLbl=1;fillColor=#FFAA00;strokeColor=#000000;" vertex="1" parent="1">
          <mxGeometry x="-160" y="679" width="120" height="94" as="geometry" />
        </mxCell>
        <mxCell id="uieIQEx0IR_x6s4_1cCk-21" style="edgeStyle=orthogonalEdgeStyle;rounded=0;orthogonalLoop=1;jettySize=auto;html=1;exitX=0.5;exitY=1;exitDx=0;exitDy=0;exitPerimeter=0;" edge="1" parent="1" source="uieIQEx0IR_x6s4_1cCk-18" target="uieIQEx0IR_x6s4_1cCk-19">
          <mxGeometry relative="1" as="geometry" />
        </mxCell>
        <mxCell id="uieIQEx0IR_x6s4_1cCk-22" value="Y" style="edgeLabel;html=1;align=center;verticalAlign=middle;resizable=0;points=[];" vertex="1" connectable="0" parent="uieIQEx0IR_x6s4_1cCk-21">
          <mxGeometry x="-0.0923" y="-1" relative="1" as="geometry">
            <mxPoint as="offset" />
          </mxGeometry>
        </mxCell>
        <mxCell id="uieIQEx0IR_x6s4_1cCk-18" value="是否配置了特效+音效" style="strokeWidth=2;html=1;shape=mxgraph.flowchart.decision;whiteSpace=wrap;" vertex="1" parent="1">
          <mxGeometry x="158" y="1009" width="147" height="61" as="geometry" />
        </mxCell>
        <mxCell id="uieIQEx0IR_x6s4_1cCk-19" value="播放破坏特效+音效" style="rounded=1;whiteSpace=wrap;html=1;" vertex="1" parent="1">
          <mxGeometry x="171.5" y="1119" width="120" height="60" as="geometry" />
        </mxCell>
        <mxCell id="uieIQEx0IR_x6s4_1cCk-20" style="edgeStyle=orthogonalEdgeStyle;rounded=0;orthogonalLoop=1;jettySize=auto;html=1;exitX=0.5;exitY=1;exitDx=0;exitDy=0;entryX=0.5;entryY=0;entryDx=0;entryDy=0;entryPerimeter=0;" edge="1" parent="1" source="uieIQEx0IR_x6s4_1cCk-10" target="uieIQEx0IR_x6s4_1cCk-18">
          <mxGeometry relative="1" as="geometry">
            <Array as="points">
              <mxPoint x="469" y="990" />
              <mxPoint x="232" y="990" />
            </Array>
          </mxGeometry>
        </mxCell>
      </root>
    </mxGraphModel>
  </diagram>
</mxfile>
